# xmcd
#
# Track frame offsets:
#	150
#	17084
#	37576
#	60687
#	82899
#	89232
#	118695
#	139796
#	162502
#
# Disc length: 2382 seconds
#
# Revision: 2
# Processed by: cddbd v1.5.2PL0 Copyright (c) Steve Scherf et al.
# Submitted via: EZCDDA 4.3.2
#
DISCID=6f094c09
DTITLE=K 3 - Under A Spell
DYEAR=1900
DGENRE=
TTITLE0=Under A Spell
TTITLE1=Fear Of Death
TTITLE2=Trapped
TTITLE3=Persecution
TTITLE4=Ritual
TTITLE5=Path Of A Storm
TTITLE6=Soul Of The Forest
TTITLE7=Before Disaster
TTITLE8=The End Of Evolution
EXTD=
EXTT0=
EXTT1=
EXTT2=
EXTT3=
EXTT4=
EXTT5=
EXTT6=
EXTT7=
EXTT8=
PLAYORDER=
